<?xml version="1.0" encoding="UTF-8"?>
<!DOCTYPE svg PUBLIC "-//W3C//DTD SVG 1.1//EN" "http://www.w3.org/Graphics/SVG/1.1/DTD/svg11.dtd">
<svg xmlns="http://www.w3.org/2000/svg" version="1.1" width="483px" height="181px" style="shape-rendering:geometricPrecision; text-rendering:geometricPrecision; image-rendering:optimizeQuality; fill-rule:evenodd; clip-rule:evenodd" xmlns:xlink="http://www.w3.org/1999/xlink">
<g><path style="opacity:0.806" fill="#d8cbb7" d="M 83.5,-0.5 C 89.8333,-0.5 96.1667,-0.5 102.5,-0.5C 106.833,0.166667 111.167,0.833333 115.5,1.5C 114.167,1.5 112.833,1.5 111.5,1.5C 98.5,1.5 85.5,1.5 72.5,1.5C 70.5336,2.44121 68.5336,3.44121 66.5,4.5C 65.8933,4.37642 65.56,4.04309 65.5,3.5C 66.347,2.03374 67.6803,1.20041 69.5,1C 74.3514,0.825502 79.0181,0.325502 83.5,-0.5 Z"/></g>
<g><path style="opacity:1" fill="#d6c2a4" d="M 72.5,1.5 C 85.5,1.5 98.5,1.5 111.5,1.5C 113.073,4.89311 115.74,6.22644 119.5,5.5C 121.167,5.5 122.833,5.5 124.5,5.5C 124.574,7.4109 125.574,8.57756 127.5,9C 130.393,10.1488 133.393,10.6488 136.5,10.5C 136.285,12.1788 136.952,13.1788 138.5,13.5C 141.564,16.7479 145.231,19.0812 149.5,20.5C 152.804,21.1441 154.138,23.1441 153.5,26.5C 154.833,26.5 156.167,26.5 157.5,26.5C 157.5,27.8333 157.5,29.1667 157.5,30.5C 158.959,30.4326 160.292,30.7659 161.5,31.5C 161.167,34.5 162.5,35.8333 165.5,35.5C 165.167,38.5 166.5,39.8333 169.5,39.5C 169.286,41.1439 169.62,42.6439 170.5,44C 165.511,44.4993 160.511,44.6659 155.5,44.5C 155.279,42.3364 154.279,40.6697 152.5,39.5C 152.833,36.5 151.5,35.1667 148.5,35.5C 148.833,32.5 147.5,31.1667 144.5,31.5C 144.833,28.5 143.5,27.1667 140.5,27.5C 140.167,27.5 139.833,27.5 139.5,27.5C 139.616,24.0897 137.95,22.7564 134.5,23.5C 130.26,20.745 125.927,17.9117 121.5,15C 119.527,14.5045 117.527,14.3379 115.5,14.5C 112.393,14.8259 110.06,13.6592 108.5,11C 103.845,10.5008 99.1785,10.3342 94.5,10.5C 92.8333,10.5 91.1667,10.5 89.5,10.5C 85.4862,10.3345 81.4862,10.5012 77.5,11C 73.2173,13.9385 68.3839,15.4385 63,15.5C 60.4556,18.1351 57.2889,19.6351 53.5,20C 52.1659,22.0871 50.3326,23.5871 48,24.5C 47.5172,25.448 47.3505,26.448 47.5,27.5C 45.4727,27.3379 43.4727,27.5045 41.5,28C 36.9512,32.7269 32.4512,37.5602 28,42.5C 26.872,44.3453 26.372,46.3453 26.5,48.5C 25.1779,48.33 24.0113,48.6634 23,49.5C 22.5034,51.8098 22.3367,54.1432 22.5,56.5C 19.0897,56.3838 17.7564,58.0504 18.5,61.5C 18.5,62.8333 18.5,64.1667 18.5,65.5C 17.325,65.281 16.325,65.6143 15.5,66.5C 14.6518,68.4086 14.3184,70.4086 14.5,72.5C 14.5,84.8333 14.5,97.1667 14.5,109.5C 13.5985,113.241 14.9319,115.241 18.5,115.5C 18.5,118.167 18.5,120.833 18.5,123.5C 19.5,123.5 20.5,123.5 21.5,123.5C 22.4345,124.568 22.7678,125.901 22.5,127.5C 21.7564,130.95 23.0897,132.616 26.5,132.5C 26.1951,136.227 27.6951,138.894 31,140.5C 31.49,141.793 31.6567,143.127 31.5,144.5C 32.8333,144.5 34.1667,144.5 35.5,144.5C 35.3505,145.552 35.5172,146.552 36,147.5C 38.1667,149 40,150.833 41.5,153C 43.4727,153.495 45.4727,153.662 47.5,153.5C 47.3838,156.91 49.0504,158.244 52.5,157.5C 52.3838,160.91 54.0504,162.244 57.5,161.5C 58.5,161.5 59.5,161.5 60.5,161.5C 61.1124,164.697 63.1124,166.031 66.5,165.5C 70.8177,166.082 74.8177,167.582 78.5,170C 87.8333,170.667 97.1667,170.667 106.5,170C 108.291,169.585 109.624,168.585 110.5,167C 113.365,166.817 116.031,166.317 118.5,165.5C 121.546,165.817 123.213,164.484 123.5,161.5C 124.5,161.5 125.5,161.5 126.5,161.5C 129.95,162.244 131.616,160.91 131.5,157.5C 132.167,157.5 132.833,157.5 133.5,157.5C 136.969,158.113 138.969,156.779 139.5,153.5C 142.367,153.631 144.033,152.297 144.5,149.5C 147.5,149.833 148.833,148.5 148.5,145.5C 148.5,144.833 148.833,144.5 149.5,144.5C 150.5,144.5 151.5,144.5 152.5,144.5C 152.5,143.167 152.5,141.833 152.5,140.5C 155.5,140.833 156.833,139.5 156.5,136.5C 160.833,136.5 165.167,136.5 169.5,136.5C 166.816,138.871 165.482,141.871 165.5,145.5C 162.5,145.167 161.167,146.5 161.5,149.5C 160.178,149.33 159.011,149.663 158,150.5C 157.599,152.521 156.432,153.855 154.5,154.5C 153.571,155.689 153.238,157.022 153.5,158.5C 150.029,160.999 146.029,162.833 141.5,164C 140.748,164.671 140.414,165.504 140.5,166.5C 139.167,166.5 137.833,166.5 136.5,166.5C 136.5,167.5 136.5,168.5 136.5,169.5C 134.031,170.317 131.365,170.817 128.5,171C 126.709,171.415 125.376,172.415 124.5,174C 122.292,174.191 120.292,174.691 118.5,175.5C 114.778,174.68 112.445,176.013 111.5,179.5C 98.1667,179.5 84.8333,179.5 71.5,179.5C 71.6399,177.876 70.9733,176.71 69.5,176C 61.5667,174.383 54.2334,171.383 47.5,167C 45.8659,166.506 44.1992,166.34 42.5,166.5C 41.9694,163.221 39.9694,161.887 36.5,162.5C 34.6925,160.424 32.3592,159.091 29.5,158.5C 29.4729,156.801 28.8062,155.467 27.5,154.5C 27.1667,150.833 25.1667,148.833 21.5,148.5C 20.5326,147.194 19.1993,146.527 17.5,146.5C 17.5,145.5 17.5,144.5 17.5,143.5C 16.6389,139.828 15.1389,136.495 13,133.5C 11.9887,132.663 10.8221,132.33 9.5,132.5C 9.66331,130.143 9.49665,127.81 9,125.5C 7.69762,124.915 6.53095,124.249 5.5,123.5C 5.66463,120.482 5.49796,117.482 5,114.5C 4.33333,113.167 3.33333,112.167 2,111.5C 1.50009,97.1705 1.33342,82.8372 1.5,68.5C 2.82207,68.67 3.98873,68.3366 5,67.5C 5.49863,63.8484 5.6653,60.1817 5.5,56.5C 8.91032,56.6162 10.2436,54.9496 9.5,51.5C 9.43255,50.0413 9.76589,48.7079 10.5,47.5C 11.5,47.5 12.5,47.5 13.5,47.5C 13.5,46.1667 13.5,44.8333 13.5,43.5C 16.8931,41.927 18.2264,39.2604 17.5,35.5C 18.5,35.5 19.5,35.5 20.5,35.5C 21.3672,32.7733 23.2006,30.7733 26,29.5C 26.4828,28.552 26.6495,27.552 26.5,26.5C 27.8333,26.5 29.1667,26.5 30.5,26.5C 30.5,25.1667 30.5,23.8333 30.5,22.5C 31.8333,22.5 33.1667,22.5 34.5,22.5C 34.5,21.5 34.5,20.5 34.5,19.5C 34.5,19.1667 34.5,18.8333 34.5,18.5C 39.1334,18.6794 42.8001,17.0128 45.5,13.5C 50.3684,11.5455 55.035,9.21218 59.5,6.5C 63.1224,5.67472 66.789,5.17472 70.5,5C 71.8228,4.18405 72.4894,3.01739 72.5,1.5 Z"/></g>
<g><path style="opacity:0.991" fill="#d6c6ad" d="M 111.5,1.5 C 112.833,1.5 114.167,1.5 115.5,1.5C 115.369,2.23891 115.536,2.90558 116,3.5C 117.302,4.0848 118.469,4.75147 119.5,5.5C 115.74,6.22644 113.073,4.89311 111.5,1.5 Z"/></g>
<g><path style="opacity:0.895" fill="#d8ccb7" d="M 115.5,1.5 C 119.253,2.85941 122.919,4.19274 126.5,5.5C 125.833,5.5 125.167,5.5 124.5,5.5C 122.833,5.5 121.167,5.5 119.5,5.5C 118.469,4.75147 117.302,4.0848 116,3.5C 115.536,2.90558 115.369,2.23891 115.5,1.5 Z"/></g>
<g><path style="opacity:0.928" fill="#d7c8b0" d="M 72.5,1.5 C 72.4894,3.01739 71.8228,4.18405 70.5,5C 66.789,5.17472 63.1224,5.67472 59.5,6.5C 55.035,9.21218 50.3684,11.5455 45.5,13.5C 46.973,11.6053 48.6397,9.93867 50.5,8.5C 54.9871,5.4576 59.9871,3.79094 65.5,3.5C 65.56,4.04309 65.8933,4.37642 66.5,4.5C 68.5336,3.44121 70.5336,2.44121 72.5,1.5 Z"/></g>
<g><path style="opacity:0.247" fill="#d8cab7" d="M 127.5,5.5 C 129.483,6.47061 131.483,7.47061 133.5,8.5C 130.953,9.23104 128.953,8.23104 127.5,5.5 Z"/></g>
<g><path style="opacity:0.979" fill="#d7c7ae" d="M 124.5,5.5 C 125.167,5.5 125.833,5.5 126.5,5.5C 126.833,5.5 127.167,5.5 127.5,5.5C 128.953,8.23104 130.953,9.23104 133.5,8.5C 136.034,8.25915 137.7,9.25915 138.5,11.5C 137.494,11.9377 137.494,12.6043 138.5,13.5C 136.952,13.1788 136.285,12.1788 136.5,10.5C 133.393,10.6488 130.393,10.1488 127.5,9C 125.574,8.57756 124.574,7.4109 124.5,5.5 Z"/></g>
<g><path style="opacity:1" fill="#d6c7ad" d="M 94.5,10.5 C 99.1785,10.3342 103.845,10.5008 108.5,11C 110.06,13.6592 112.393,14.8259 115.5,14.5C 115.158,15.3382 114.492,15.6716 113.5,15.5C 111.833,15.5 110.167,15.5 108.5,15.5C 108.586,14.5041 108.252,13.6708 107.5,13C 105.059,11.6077 102.726,11.441 100.5,12.5C 100.167,12.5 99.8333,12.5 99.5,12.5C 97.8333,11.8333 96.1667,11.1667 94.5,10.5 Z"/></g>
<g><path style="opacity:0.875" fill="#d8cab7" d="M 50.5,8.5 C 48.6397,9.93867 46.973,11.6053 45.5,13.5C 44.1667,13.5 42.8333,13.5 41.5,13.5C 43.8587,12.663 45.8587,11.163 47.5,9C 48.448,8.51722 49.448,8.35055 50.5,8.5 Z"/></g>
<g><path style="opacity:0.906" fill="#d8ccb7" d="M 83.5,12.5 C 81.351,13.7362 79.0177,14.7362 76.5,15.5C 77.979,11.9437 80.3124,10.9437 83.5,12.5 Z"/></g>
<g><path style="opacity:0.498" fill="#dbcebb" d="M 89.5,10.5 C 91.1667,10.5 92.8333,10.5 94.5,10.5C 96.1667,11.1667 97.8333,11.8333 99.5,12.5C 94.5,12.5 89.5,12.5 84.5,12.5C 86.1667,11.8333 87.8333,11.1667 89.5,10.5 Z"/></g>
<g><path style="opacity:0.916" fill="#d8cbb6" d="M 108.5,15.5 C 105.603,14.871 102.936,13.871 100.5,12.5C 102.726,11.441 105.059,11.6077 107.5,13C 108.252,13.6708 108.586,14.5041 108.5,15.5 Z"/></g>
<g><path style="opacity:0.937" fill="#d8cab7" d="M 138.5,11.5 C 142.505,12.4977 145.839,14.4977 148.5,17.5C 145.393,15.7579 142.059,14.4245 138.5,13.5C 137.494,12.6043 137.494,11.9377 138.5,11.5 Z"/></g>
<g><path style="opacity:1" fill="#d6c7ad" d="M 138.5,13.5 C 142.059,14.4245 145.393,15.7579 148.5,17.5C 149.833,17.5 150.5,18.1667 150.5,19.5C 149.833,19.5 149.5,19.8333 149.5,20.5C 145.231,19.0812 141.564,16.7479 138.5,13.5 Z"/></g>
<g><path style="opacity:0.99" fill="#d6c7af" d="M 41.5,13.5 C 42.8333,13.5 44.1667,13.5 45.5,13.5C 42.8001,17.0128 39.1334,18.6794 34.5,18.5C 34.5,18.1667 34.5,17.8333 34.5,17.5C 36.8489,16.0426 39.1822,14.7092 41.5,13.5 Z"/></g>
<g><path style="opacity:1" fill="#d7c9b2" d="M 115.5,14.5 C 117.527,14.3379 119.527,14.5045 121.5,15C 125.927,17.9117 130.26,20.745 134.5,23.5C 135.5,24.8333 136.5,26.1667 137.5,27.5C 129.953,22.5432 121.953,18.5432 113.5,15.5C 114.492,15.6716 115.158,15.3382 115.5,14.5 Z"/></g>
<g><path style="opacity:0.247" fill="#daccb9" d="M 67.5,16.5 C 66.3126,18.9754 64.3126,19.9754 61.5,19.5C 63.6263,18.8745 65.293,17.5411 66.5,15.5C 67.1067,15.6236 67.44,15.9569 67.5,16.5 Z"/></g>
<g><path style="opacity:0.875" fill="#dbcdb9" d="M 34.5,17.5 C 34.5,17.8333 34.5,18.1667 34.5,18.5C 34.5,18.8333 34.5,19.1667 34.5,19.5C 33.5326,20.8062 32.1993,21.4729 30.5,21.5C 31.5,19.8333 32.8333,18.5 34.5,17.5 Z"/></g>
<g><path style="opacity:0.979" fill="#d7c8b0" d="M 34.5,19.5 C 34.5,20.5 34.5,21.5 34.5,22.5C 33.1667,22.5 31.8333,22.5 30.5,22.5C 30.5,23.8333 30.5,25.1667 30.5,26.5C 29.1667,26.5 27.8333,26.5 26.5,26.5C 26.6495,27.552 26.4828,28.552 26,29.5C 23.2006,30.7733 21.3672,32.7733 20.5,35.5C 19.5,35.5 18.5,35.5 17.5,35.5C 18.2264,39.2604 16.8931,41.927 13.5,43.5C 13.5,42.1667 13.5,40.8333 13.5,39.5C 18.4908,32.8431 24.1575,26.8431 30.5,21.5C 32.1993,21.4729 33.5326,20.8062 34.5,19.5 Z"/></g>
<g><path style="opacity:1" fill="#d6c6ad" d="M 134.5,23.5 C 137.95,22.7564 139.616,24.0897 139.5,27.5C 138.833,27.5 138.167,27.5 137.5,27.5C 136.5,26.1667 135.5,24.8333 134.5,23.5 Z"/></g>
<g><path style="opacity:0.875" fill="#d9cbb5" d="M 149.5,20.5 C 149.5,19.8333 149.833,19.5 150.5,19.5C 159.624,25.9529 166.957,33.9529 172.5,43.5C 172.291,44.086 171.957,44.586 171.5,45C 165.984,45.8174 160.65,45.6507 155.5,44.5C 160.511,44.6659 165.511,44.4993 170.5,44C 169.62,42.6439 169.286,41.1439 169.5,39.5C 166.5,39.8333 165.167,38.5 165.5,35.5C 164.167,34.1667 162.833,32.8333 161.5,31.5C 160.292,30.7659 158.959,30.4326 157.5,30.5C 157.5,29.1667 157.5,27.8333 157.5,26.5C 156.167,26.5 154.833,26.5 153.5,26.5C 154.138,23.1441 152.804,21.1441 149.5,20.5 Z"/></g>
<g><path style="opacity:1" fill="#d6c2a5" d="M 476.5,26.5 C 476.833,26.5 477.167,26.5 477.5,26.5C 477.5,46.1667 477.5,65.8333 477.5,85.5C 478.833,85.5 480.167,85.5 481.5,85.5C 481.833,85.5 482.167,85.5 482.5,85.5C 482.5,91.5 482.5,97.5 482.5,103.5C 350.236,104.665 217.903,104.831 85.5,104C 84.1742,97.7345 84.1742,91.5678 85.5,85.5C 201.833,85.5 318.167,85.5 434.5,85.5C 434.5,73.1667 434.5,60.8333 434.5,48.5C 440.167,48.5 445.833,48.5 451.5,48.5C 451.172,60.6783 451.505,72.6783 452.5,84.5C 455.962,85.4816 459.629,85.815 463.5,85.5C 465.144,85.7135 466.644,85.3802 468,84.5C 468.5,67.8367 468.667,51.17 468.5,34.5C 470.566,32.9087 472.899,31.5754 475.5,30.5C 476.429,29.3112 476.762,27.9778 476.5,26.5 Z"/></g>
<g><path style="opacity:0.978" fill="#d8ccb7" d="M 477.5,26.5 C 478.88,45.9691 480.213,65.6358 481.5,85.5C 480.167,85.5 478.833,85.5 477.5,85.5C 477.5,65.8333 477.5,46.1667 477.5,26.5 Z"/></g>
<g><path style="opacity:1" fill="#d7c8b0" d="M 89.5,10.5 C 87.8333,11.1667 86.1667,11.8333 84.5,12.5C 84.1667,12.5 83.8333,12.5 83.5,12.5C 80.3124,10.9437 77.979,11.9437 76.5,15.5C 73.4824,15.7038 70.4824,16.0371 67.5,16.5C 67.44,15.9569 67.1067,15.6236 66.5,15.5C 65.293,17.5411 63.6263,18.8745 61.5,19.5C 52.5527,24.9836 43.886,30.9836 35.5,37.5C 32.736,38.9475 31.0693,41.2809 30.5,44.5C 27.0354,49.2806 24.0354,54.2806 21.5,59.5C 20.8826,59.3893 20.3826,59.056 20,58.5C 19.7679,59.7375 19.2679,60.7375 18.5,61.5C 17.7564,58.0504 19.0897,56.3838 22.5,56.5C 22.3367,54.1432 22.5034,51.8098 23,49.5C 24.0113,48.6634 25.1779,48.33 26.5,48.5C 26.372,46.3453 26.872,44.3453 28,42.5C 32.4512,37.5602 36.9512,32.7269 41.5,28C 43.4727,27.5045 45.4727,27.3379 47.5,27.5C 47.3505,26.448 47.5172,25.448 48,24.5C 50.3326,23.5871 52.1659,22.0871 53.5,20C 57.2889,19.6351 60.4556,18.1351 63,15.5C 68.3839,15.4385 73.2173,13.9385 77.5,11C 81.4862,10.5012 85.4862,10.3345 89.5,10.5 Z"/></g>
<g><path style="opacity:1" fill="#d6c6ad" d="M 140.5,27.5 C 143.5,27.1667 144.833,28.5 144.5,31.5C 143.5,29.8333 142.167,28.5 140.5,27.5 Z"/></g>
<g><path style="opacity:1" fill="#d6c6ad" d="M 161.5,31.5 C 162.833,32.8333 164.167,34.1667 165.5,35.5C 162.5,35.8333 161.167,34.5 161.5,31.5 Z"/></g>
<g><path style="opacity:0.997" fill="#d6c9b4" d="M 476.5,26.5 C 476.762,27.9778 476.429,29.3112 475.5,30.5C 472.899,31.5754 470.566,32.9087 468.5,34.5C 467.833,50.5 467.167,66.5 466.5,82.5C 466.5,66.5 466.5,50.5 466.5,34.5C 466.33,33.1779 466.663,32.0113 467.5,31C 470.832,30.0005 473.832,28.5005 476.5,26.5 Z"/></g>
<g><path style="opacity:1" fill="#d6c6ad" d="M 468.5,34.5 C 468.667,51.17 468.5,67.8367 468,84.5C 466.644,85.3802 465.144,85.7135 463.5,85.5C 463.5,85.1667 463.5,84.8333 463.5,84.5C 465.027,84.573 466.027,83.9063 466.5,82.5C 467.167,66.5 467.833,50.5 468.5,34.5 Z"/></g>
<g><path style="opacity:1" fill="#d5c6ac" d="M 148.5,35.5 C 151.5,35.1667 152.833,36.5 152.5,39.5C 151.5,37.8333 150.167,36.5 148.5,35.5 Z"/></g>
<g><path style="opacity:0.501" fill="#dcccbc" d="M 466.5,34.5 C 466.5,50.5 466.5,66.5 466.5,82.5C 466.027,83.9063 465.027,84.573 463.5,84.5C 463.783,83.7109 464.283,83.0442 465,82.5C 465.169,66.3281 465.669,50.3281 466.5,34.5 Z"/></g>
<g><path style="opacity:0.916" fill="#d8cab5" d="M 137.5,27.5 C 138.167,27.5 138.833,27.5 139.5,27.5C 139.833,27.5 140.167,27.5 140.5,27.5C 142.167,28.5 143.5,29.8333 144.5,31.5C 147.5,31.1667 148.833,32.5 148.5,35.5C 150.167,36.5 151.5,37.8333 152.5,39.5C 154.279,40.6697 155.279,42.3364 155.5,44.5C 149.7,38.5059 143.7,32.8392 137.5,27.5 Z"/></g>
<g><path style="opacity:0.247" fill="#d8ccb8" d="M 35.5,37.5 C 34.2141,40.117 32.5475,42.4504 30.5,44.5C 31.0693,41.2809 32.736,38.9475 35.5,37.5 Z"/></g>
<g><path style="opacity:1" fill="#d6c6ad" d="M 13.5,43.5 C 13.5,44.8333 13.5,46.1667 13.5,47.5C 12.5,47.5 11.5,47.5 10.5,47.5C 11.5116,46.1283 12.5116,44.795 13.5,43.5 Z"/></g>
<g><path style="opacity:0.833" fill="#d8cab6" d="M 13.5,39.5 C 13.5,40.8333 13.5,42.1667 13.5,43.5C 12.5116,44.795 11.5116,46.1283 10.5,47.5C 9.76589,48.7079 9.43255,50.0413 9.5,51.5C 8.83333,51.5 8.16667,51.5 7.5,51.5C 9.10399,47.25 11.104,43.25 13.5,39.5 Z"/></g>
<g><path style="opacity:0.997" fill="#d8cab3" d="M 453.5,83.5 C 452.833,83.5 452.5,83.8333 452.5,84.5C 451.505,72.6783 451.172,60.6783 451.5,48.5C 445.833,48.5 440.167,48.5 434.5,48.5C 436.915,47.1858 439.748,46.5191 443,46.5C 445.833,46.6667 448.667,46.8333 451.5,47C 452,47.5 452.5,48 453,48.5C 453.5,60.1619 453.667,71.8286 453.5,83.5 Z"/></g>
<g><path style="opacity:1" fill="#d6c6ad" d="M 7.5,52.5 C 7.5,52.1667 7.5,51.8333 7.5,51.5C 8.16667,51.5 8.83333,51.5 9.5,51.5C 10.2436,54.9496 8.91032,56.6162 5.5,56.5C 6.17197,55.7326 7.0053,55.0659 8,54.5C 8.69169,53.5632 8.52502,52.8966 7.5,52.5 Z"/></g>
<g><path style="opacity:0.937" fill="#d8ccb6" d="M 7.5,52.5 C 8.52502,52.8966 8.69169,53.5632 8,54.5C 7.0053,55.0659 6.17197,55.7326 5.5,56.5C 5.16667,56.5 4.83333,56.5 4.5,56.5C 4.73758,54.5956 5.73758,53.2623 7.5,52.5 Z"/></g>
<g><path style="opacity:1" fill="#d7c8af" d="M 4.5,56.5 C 4.83333,56.5 5.16667,56.5 5.5,56.5C 5.6653,60.1817 5.49863,63.8484 5,67.5C 3.98873,68.3366 2.82207,68.67 1.5,68.5C 2.47565,67.1851 3.47565,65.8518 4.5,64.5C 4.13727,63.8165 3.80393,63.1499 3.5,62.5C 3.51715,60.4352 3.85048,58.4352 4.5,56.5 Z"/></g>
<g><path style="opacity:1" fill="#d8cbb7" d="M 3.5,62.5 C 3.80393,63.1499 4.13727,63.8165 4.5,64.5C 3.47565,65.8518 2.47565,67.1851 1.5,68.5C 1.16667,68.5 0.833333,68.5 0.5,68.5C 0.992493,66.1815 1.99249,64.1815 3.5,62.5 Z"/></g>
<g><path style="opacity:1" fill="#d6c6ad" d="M 18.5,65.5 C 17.1261,67.8583 15.7928,70.1917 14.5,72.5C 14.3184,70.4086 14.6518,68.4086 15.5,66.5C 16.325,65.6143 17.325,65.281 18.5,65.5 Z"/></g>
<g><path style="opacity:0.942" fill="#d7c8b0" d="M 0.5,68.5 C 0.833333,68.5 1.16667,68.5 1.5,68.5C 1.33342,82.8372 1.50009,97.1705 2,111.5C 3.33333,112.167 4.33333,113.167 5,114.5C 5.49796,117.482 5.66463,120.482 5.5,123.5C 5.16667,123.5 4.83333,123.5 4.5,123.5C 3.962,121.883 3.62867,120.216 3.5,118.5C 4.21044,115.914 3.21044,113.914 0.5,112.5C 0.737305,111.209 0.403972,110.209 -0.5,109.5C -0.5,96.8333 -0.5,84.1667 -0.5,71.5C 0.403972,70.791 0.737305,69.791 0.5,68.5 Z"/></g>
<g><path style="opacity:0.498" fill="#dbceb9" d="M 21.5,59.5 C 20.2949,64.7225 18.4615,69.7225 16,74.5C 15.209,86.2126 15.3756,97.8793 16.5,109.5C 15.8333,109.5 15.1667,109.5 14.5,109.5C 14.5,97.1667 14.5,84.8333 14.5,72.5C 15.7928,70.1917 17.1261,67.8583 18.5,65.5C 18.5,64.1667 18.5,62.8333 18.5,61.5C 19.2679,60.7375 19.7679,59.7375 20,58.5C 20.3826,59.056 20.8826,59.3893 21.5,59.5 Z"/></g>
<g><path style="opacity:0.498" fill="#dcd0bc" d="M 434.5,48.5 C 434.5,60.8333 434.5,73.1667 434.5,85.5C 318.167,85.5 201.833,85.5 85.5,85.5C 200.999,84.6669 316.666,84.1669 432.5,84C 433.157,72.0686 433.824,60.2353 434.5,48.5 Z"/></g>
<g><path style="opacity:0.498" fill="#dbceb9" d="M 453.5,83.5 C 456.728,84.4137 460.061,84.7471 463.5,84.5C 463.5,84.8333 463.5,85.1667 463.5,85.5C 459.629,85.815 455.962,85.4816 452.5,84.5C 452.5,83.8333 452.833,83.5 453.5,83.5 Z"/></g>
<g><path style="opacity:1" fill="#d6c7b0" d="M 14.5,109.5 C 15.1667,109.5 15.8333,109.5 16.5,109.5C 18.8711,111.997 19.8711,114.997 19.5,118.5C 19.3915,120.514 20.0582,122.18 21.5,123.5C 20.5,123.5 19.5,123.5 18.5,123.5C 18.5,120.833 18.5,118.167 18.5,115.5C 14.9319,115.241 13.5985,113.241 14.5,109.5 Z"/></g>
<g><path style="opacity:0.937" fill="#d8cbb7" d="M 0.5,112.5 C 3.21044,113.914 4.21044,115.914 3.5,118.5C 1.65353,116.97 0.653535,114.97 0.5,112.5 Z"/></g>
<g><path style="opacity:0.624" fill="#d9ccb8" d="M 19.5,118.5 C 22.3934,120.748 24.0601,123.748 24.5,127.5C 23.8333,127.5 23.1667,127.5 22.5,127.5C 22.7678,125.901 22.4345,124.568 21.5,123.5C 20.0582,122.18 19.3915,120.514 19.5,118.5 Z"/></g>
<g><path style="opacity:1" fill="#d6c7ad" d="M 22.5,127.5 C 23.1667,127.5 23.8333,127.5 24.5,127.5C 24.5,127.833 24.5,128.167 24.5,128.5C 23.9569,128.56 23.6236,128.893 23.5,129.5C 24.3398,130.735 25.3398,131.735 26.5,132.5C 23.0897,132.616 21.7564,130.95 22.5,127.5 Z"/></g>
<g><path style="opacity:1" fill="#d7c8b1" d="M 4.5,123.5 C 4.83333,123.5 5.16667,123.5 5.5,123.5C 6.53095,124.249 7.69762,124.915 9,125.5C 9.49665,127.81 9.66331,130.143 9.5,132.5C 10.8221,132.33 11.9887,132.663 13,133.5C 15.1389,136.495 16.6389,139.828 17.5,143.5C 16.5326,142.194 15.1993,141.527 13.5,141.5C 9.4387,136.044 6.4387,130.044 4.5,123.5 Z"/></g>
<g><path style="opacity:0.982" fill="#d8ccb7" d="M 170.5,139.5 C 170.737,138.209 170.404,137.209 169.5,136.5C 165.167,136.5 160.833,136.5 156.5,136.5C 156.5,136.167 156.5,135.833 156.5,135.5C 160.981,134.352 165.648,134.185 170.5,135C 171.801,136.616 171.801,138.116 170.5,139.5 Z"/></g>
<g><path style="opacity:0.925" fill="#d8ccb7" d="M 155.5,135.5 C 155.833,138.5 154.5,139.833 151.5,139.5C 152.5,137.833 153.833,136.5 155.5,135.5 Z"/></g>
<g><path style="opacity:0.979" fill="#d6c7af" d="M 169.5,136.5 C 170.404,137.209 170.737,138.209 170.5,139.5C 169.214,142.117 167.547,144.45 165.5,146.5C 164.761,146.369 164.094,146.536 163.5,147C 162.262,147.69 162.262,148.19 163.5,148.5C 163.5,148.833 163.5,149.167 163.5,149.5C 162.833,149.5 162.167,149.5 161.5,149.5C 161.167,146.5 162.5,145.167 165.5,145.5C 165.482,141.871 166.816,138.871 169.5,136.5 Z"/></g>
<g><path style="opacity:0.975" fill="#d6c7ad" d="M 155.5,135.5 C 155.833,135.5 156.167,135.5 156.5,135.5C 156.5,135.833 156.5,136.167 156.5,136.5C 156.833,139.5 155.5,140.833 152.5,140.5C 152.5,141.833 152.5,143.167 152.5,144.5C 151.5,144.5 150.5,144.5 149.5,144.5C 150.6,143.395 151.267,142.062 151.5,140.5C 151.5,140.167 151.5,139.833 151.5,139.5C 154.5,139.833 155.833,138.5 155.5,135.5 Z"/></g>
<g><path style="opacity:0.247" fill="#daccb8" d="M 13.5,141.5 C 15.1993,141.527 16.5326,142.194 17.5,143.5C 17.5,144.5 17.5,145.5 17.5,146.5C 16.407,144.651 15.0737,142.984 13.5,141.5 Z"/></g>
<g><path style="opacity:0.994" fill="#d7c8af" d="M 24.5,128.5 C 28.8496,133.187 32.8496,138.187 36.5,143.5C 38.4183,146.924 40.9183,149.924 44,152.5C 44.3988,152.272 44.5654,151.938 44.5,151.5C 47.9925,152.389 50.9925,154.055 53.5,156.5C 54.8333,158.167 56.1667,159.833 57.5,161.5C 54.0504,162.244 52.3838,160.91 52.5,157.5C 49.0504,158.244 47.3838,156.91 47.5,153.5C 45.4727,153.662 43.4727,153.495 41.5,153C 40,150.833 38.1667,149 36,147.5C 35.5172,146.552 35.3505,145.552 35.5,144.5C 34.1667,144.5 32.8333,144.5 31.5,144.5C 31.6567,143.127 31.49,141.793 31,140.5C 27.6951,138.894 26.1951,136.227 26.5,132.5C 25.3398,131.735 24.3398,130.735 23.5,129.5C 23.6236,128.893 23.9569,128.56 24.5,128.5 Z"/></g>
<g><path style="opacity:0.875" fill="#d8cbb8" d="M 36.5,143.5 C 39.5,145.833 42.1667,148.5 44.5,151.5C 44.5654,151.938 44.3988,152.272 44,152.5C 40.9183,149.924 38.4183,146.924 36.5,143.5 Z"/></g>
<g><path style="opacity:1" fill="#d6c6ad" d="M 148.5,145.5 C 148.833,148.5 147.5,149.833 144.5,149.5C 145.5,147.833 146.833,146.5 148.5,145.5 Z"/></g>
<g><path style="opacity:0.937" fill="#d9ccb7" d="M 17.5,146.5 C 19.1993,146.527 20.5326,147.194 21.5,148.5C 21.5,149.167 21.5,149.833 21.5,150.5C 19.8333,149.5 18.5,148.167 17.5,146.5 Z"/></g>
<g><path style="opacity:0.373" fill="#d9cbb9" d="M 165.5,146.5 C 165.167,147.5 164.5,148.167 163.5,148.5C 162.262,148.19 162.262,147.69 163.5,147C 164.094,146.536 164.761,146.369 165.5,146.5 Z"/></g>
<g><path style="opacity:0.977" fill="#d5c6ac" d="M 21.5,148.5 C 25.1667,148.833 27.1667,150.833 27.5,154.5C 26.8333,154.5 26.1667,154.5 25.5,154.5C 25.8333,151.5 24.5,150.167 21.5,150.5C 21.5,149.833 21.5,149.167 21.5,148.5 Z"/></g>
<g><path style="opacity:1" fill="#d6c6ad" d="M 144.5,149.5 C 144.033,152.297 142.367,153.631 139.5,153.5C 141.142,152.197 142.809,150.864 144.5,149.5 Z"/></g>
<g><path style="opacity:0.373" fill="#dacdb8" d="M 21.5,150.5 C 24.5,150.167 25.8333,151.5 25.5,154.5C 23.8333,153.5 22.5,152.167 21.5,150.5 Z"/></g>
<g><path style="opacity:1" fill="#d6c6ad" d="M 139.5,153.5 C 138.969,156.779 136.969,158.113 133.5,157.5C 135.223,155.782 137.223,154.449 139.5,153.5 Z"/></g>
<g><path style="opacity:0.916" fill="#d8ccb7" d="M 25.5,154.5 C 26.1667,154.5 26.8333,154.5 27.5,154.5C 28.8062,155.467 29.4729,156.801 29.5,158.5C 27.8333,157.5 26.5,156.167 25.5,154.5 Z"/></g>
<g><path style="opacity:0.925" fill="#d8cbb7" d="M 151.5,140.5 C 151.267,142.062 150.6,143.395 149.5,144.5C 148.833,144.5 148.5,144.833 148.5,145.5C 146.833,146.5 145.5,147.833 144.5,149.5C 142.809,150.864 141.142,152.197 139.5,153.5C 137.223,154.449 135.223,155.782 133.5,157.5C 132.833,157.5 132.167,157.5 131.5,157.5C 130.374,159.536 128.707,160.87 126.5,161.5C 125.5,161.5 124.5,161.5 123.5,161.5C 122.833,161.5 122.167,161.5 121.5,161.5C 132.58,156.316 142.58,149.316 151.5,140.5 Z"/></g>
<g><path style="opacity:1" fill="#d6c6ad" d="M 131.5,157.5 C 131.616,160.91 129.95,162.244 126.5,161.5C 128.707,160.87 130.374,159.536 131.5,157.5 Z"/></g>
<g><path style="opacity:0.875" fill="#d8cbb7" d="M 53.5,156.5 C 56.3786,158.438 59.3786,160.105 62.5,161.5C 61.8333,161.5 61.1667,161.5 60.5,161.5C 59.5,161.5 58.5,161.5 57.5,161.5C 56.1667,159.833 54.8333,158.167 53.5,156.5 Z"/></g>
<g><path style="opacity:0.624" fill="#d8cbb7" d="M 29.5,158.5 C 32.3592,159.091 34.6925,160.424 36.5,162.5C 38.1392,163.473 39.4726,164.806 40.5,166.5C 35.9635,164.954 32.2968,162.288 29.5,158.5 Z"/></g>
<g><path style="opacity:0.99" fill="#d6c6ad" d="M 60.5,161.5 C 61.1667,161.5 61.8333,161.5 62.5,161.5C 63.5274,163.194 64.8608,164.527 66.5,165.5C 63.1124,166.031 61.1124,164.697 60.5,161.5 Z"/></g>
<g><path style="opacity:0.875" fill="#d7cab6" d="M 121.5,161.5 C 121.229,163.43 120.229,164.764 118.5,165.5C 117.508,165.672 116.842,165.338 116.5,164.5C 117.899,163.11 119.566,162.11 121.5,161.5 Z"/></g>
<g><path style="opacity:0.987" fill="#d5c6ac" d="M 121.5,161.5 C 122.167,161.5 122.833,161.5 123.5,161.5C 123.213,164.484 121.546,165.817 118.5,165.5C 120.229,164.764 121.229,163.43 121.5,161.5 Z"/></g>
<g><path style="opacity:1" fill="#d7c9b3" d="M 161.5,149.5 C 162.167,149.5 162.833,149.5 163.5,149.5C 150.336,164.08 134.336,174.08 115.5,179.5C 115.771,177.57 116.771,176.236 118.5,175.5C 120.292,174.691 122.292,174.191 124.5,174C 125.376,172.415 126.709,171.415 128.5,171C 131.365,170.817 134.031,170.317 136.5,169.5C 137.872,168.488 139.205,167.488 140.5,166.5C 140.414,165.504 140.748,164.671 141.5,164C 146.029,162.833 150.029,160.999 153.5,158.5C 153.238,157.022 153.571,155.689 154.5,154.5C 156.432,153.855 157.599,152.521 158,150.5C 159.011,149.663 160.178,149.33 161.5,149.5 Z"/></g>
<g><path style="opacity:1" fill="#d7c8b1" d="M 36.5,162.5 C 39.9694,161.887 41.9694,163.221 42.5,166.5C 44.1992,166.34 45.8659,166.506 47.5,167C 54.2334,171.383 61.5667,174.383 69.5,176C 70.9733,176.71 71.6399,177.876 71.5,179.5C 84.8333,179.5 98.1667,179.5 111.5,179.5C 112.167,179.5 112.833,179.5 113.5,179.5C 113.5,179.833 113.5,180.167 113.5,180.5C 99.1667,180.5 84.8333,180.5 70.5,180.5C 66.5785,178.05 62.2451,176.383 57.5,175.5C 56.1707,172.52 53.8374,171.187 50.5,171.5C 46.7285,170.733 43.3951,169.066 40.5,166.5C 39.4726,164.806 38.1392,163.473 36.5,162.5 Z"/></g>
<g><path style="opacity:1" fill="#d6c7af" d="M 62.5,161.5 C 66.5406,163.581 70.8739,164.914 75.5,165.5C 76.9869,166.804 78.6536,167.97 80.5,169C 87.0137,169.82 93.3471,169.653 99.5,168.5C 99.8333,168.5 100.167,168.5 100.5,168.5C 103.943,169.353 106.943,168.353 109.5,165.5C 111.717,164.631 114.05,164.298 116.5,164.5C 116.842,165.338 117.508,165.672 118.5,165.5C 116.031,166.317 113.365,166.817 110.5,167C 109.624,168.585 108.291,169.585 106.5,170C 97.1667,170.667 87.8333,170.667 78.5,170C 74.8177,167.582 70.8177,166.082 66.5,165.5C 64.8608,164.527 63.5274,163.194 62.5,161.5 Z"/></g>
<g><path style="opacity:0.969" fill="#d9cbb8" d="M 75.5,165.5 C 78.4245,165.46 81.0912,166.293 83.5,168C 88.8229,168.499 94.1563,168.666 99.5,168.5C 93.3471,169.653 87.0137,169.82 80.5,169C 78.6536,167.97 76.9869,166.804 75.5,165.5 Z"/></g>
<g><path style="opacity:1" fill="#d6c7ad" d="M 140.5,166.5 C 139.205,167.488 137.872,168.488 136.5,169.5C 136.5,168.5 136.5,167.5 136.5,166.5C 137.833,166.5 139.167,166.5 140.5,166.5 Z"/></g>
<g><path style="opacity:0.749" fill="#d9ccb8" d="M 109.5,165.5 C 106.943,168.353 103.943,169.353 100.5,168.5C 103.084,166.528 106.084,165.528 109.5,165.5 Z"/></g>
<g><path style="opacity:0.937" fill="#d8ccb7" d="M 50.5,171.5 C 53.8374,171.187 56.1707,172.52 57.5,175.5C 54.6737,175.002 52.3403,173.669 50.5,171.5 Z"/></g>
<g><path style="opacity:0.937" fill="#d5c6ac" d="M 118.5,175.5 C 116.771,176.236 115.771,177.57 115.5,179.5C 114.833,179.5 114.167,179.5 113.5,179.5C 112.833,179.5 112.167,179.5 111.5,179.5C 112.445,176.013 114.778,174.68 118.5,175.5 Z"/></g>
</svg>
